<svg width="32" height="32" viewBox="0 0 32 32" xmlns="http://www.w3.org/2000/svg">
  <defs>
    <radialGradient id="bg" cx="0.5" cy="0.5" r="0.7">
      <stop offset="0%" stop-color="#1a1a2e"/>
      <stop offset="100%" stop-color="#0b0b0b"/>
    </radialGradient>
    
    <linearGradient id="flow1" x1="0%" y1="0%" x2="100%" y2="100%">
      <stop offset="0%" stop-color="#ff6b35" stop-opacity="0.8"/>
      <stop offset="30%" stop-color="#f7931e" stop-opacity="0.6"/>
      <stop offset="70%" stop-color="#ffcd3c" stop-opacity="0.4"/>
      <stop offset="100%" stop-color="#ff6b35" stop-opacity="0.2"/>
    </linearGradient>
    
    <linearGradient id="flow2" x1="100%" y1="0%" x2="0%" y2="100%">
      <stop offset="0%" stop-color="#c44569" stop-opacity="0.6"/>
      <stop offset="50%" stop-color="#f8b500" stop-opacity="0.4"/>
      <stop offset="100%" stop-color="#ff6b35" stop-opacity="0.3"/>
    </linearGradient>
    
    <filter id="glow">
      <feGaussianBlur stdDeviation="1" result="coloredBlur"/>
      <feMerge> 
        <feMergeNode in="coloredBlur"/>
        <feMergeNode in="SourceGraphic"/>
      </feMerge>
    </filter>
  </defs>
  
  <!-- Background -->
  <rect width="32" height="32" fill="url(#bg)"/>
  
  <!-- Flowing organic shapes -->
  <path d="M2,16 Q8,6 16,8 Q24,10 30,16 Q26,22 20,24 Q12,26 6,20 Q2,18 2,16 Z" 
        fill="url(#flow1)" 
        filter="url(#glow)"
        opacity="0.7"/>
        
  <path d="M4,12 Q12,2 20,6 Q28,10 30,18 Q24,28 16,26 Q8,24 4,16 Q2,14 4,12 Z" 
        fill="url(#flow2)" 
        filter="url(#glow)"
        opacity="0.5"/>
        
  <!-- Central bright spot -->
  <circle cx="16" cy="16" r="4" 
          fill="#ffcd3c" 
          opacity="0.6" 
          filter="url(#glow)"/>
          
  <!-- Subtle noise-like dots -->
  <circle cx="8" cy="10" r="0.5" fill="#fff" opacity="0.3"/>
  <circle cx="22" cy="8" r="0.7" fill="#ff6b35" opacity="0.4"/>
  <circle cx="26" cy="20" r="0.5" fill="#f7931e" opacity="0.3"/>
  <circle cx="10" cy="24" r="0.6" fill="#ffcd3c" opacity="0.4"/>
  <circle cx="18" cy="26" r="0.4" fill="#fff" opacity="0.2"/>
</svg>